<?xml version="1.0" encoding="UTF-8" standalone="no"?><!DOCTYPE svg PUBLIC "-//W3C//DTD SVG 1.1//EN" "http://www.w3.org/Graphics/SVG/1.1/DTD/svg11.dtd"><svg width="100%" height="100%" viewBox="0 0 1500 1500" version="1.1" xmlns="http://www.w3.org/2000/svg" xmlns:xlink="http://www.w3.org/1999/xlink" xml:space="preserve" xmlns:serif="http://www.serif.com/" style="fill-rule:evenodd;clip-rule:evenodd;stroke-linejoin:round;stroke-miterlimit:2;"><path d="M120.156,827.711c-0,7.074 -5.744,12.81 -12.829,12.81l-48.447,-0c-7.085,-0 -12.829,-5.736 -12.829,-12.81l0,-211.258c0,-7.075 5.744,-12.81 12.829,-12.81l48.447,-0c7.085,-0 12.829,5.735 12.829,12.81l-0,211.258Zm-78.49,-285.149c0,-10.508 3.801,-19.119 11.401,-25.833c7.601,-6.714 17.467,-10.071 29.598,-10.071c12.132,0 21.998,3.357 29.598,10.071c7.6,6.714 11.401,15.325 11.401,25.833c-0,10.509 -3.801,19.12 -11.401,25.834c-7.6,6.713 -17.466,10.07 -29.598,10.07c-12.131,0 -21.997,-3.357 -29.598,-10.07c-7.6,-6.714 -11.401,-15.325 -11.401,-25.834Z" style="fill:#1b2644;fill-rule:nonzero;"/><path d="M375.845,789.962c-1.674,-5.348 -6.634,-8.989 -12.245,-8.989l-86.56,-0c-5.627,-0 -10.597,3.661 -12.257,9.03l-12.831,41.487c-1.661,5.369 -6.631,9.031 -12.258,9.031l-54.382,-0c-8.918,-0 -15.115,-8.861 -12.044,-17.221l107.666,-293.136c1.853,-5.046 6.662,-8.4 12.044,-8.4l54.455,0c5.37,0 10.172,3.341 12.034,8.371l108.472,293.135c3.095,8.366 -3.103,17.251 -12.034,17.251l-54.806,-0c-5.611,-0 -10.571,-3.642 -12.245,-8.989l-13.009,-41.57Zm-87.287,-76.614c-1.274,4.121 1.81,8.296 6.129,8.296l51.217,-0c4.323,-0 7.409,-4.184 6.125,-8.307l-25.69,-82.514c-1.872,-6.011 -10.394,-6.003 -12.254,0.011l-25.527,82.514Z" style="fill:#1b2644;fill-rule:nonzero;"/><path d="M725.927,568.283c-0,7.075 -5.744,12.81 -12.829,12.81l-70.152,0c-7.085,0 -12.829,5.736 -12.829,12.811l0,233.807c0,7.074 -5.744,12.81 -12.829,12.81l-51.297,-0c-7.085,-0 -12.829,-5.736 -12.829,-12.81l0,-233.807c0,-7.075 -5.743,-12.811 -12.828,-12.811l-68.398,0c-7.085,0 -12.829,-5.735 -12.829,-12.81l-0,-33.708c-0,-7.075 5.744,-12.811 12.829,-12.811l241.162,0c7.085,0 12.829,5.736 12.829,12.811l-0,33.708Z" style="fill:#1b2644;fill-rule:nonzero;"/><path d="M919.738,755.796c0,-11.238 -4.019,-19.995 -12.058,-26.271c-7.893,-6.276 -21.851,-12.77 -41.876,-19.484c-20.024,-6.714 -36.394,-13.209 -49.11,-19.485c-41.364,-20.287 -62.046,-48.163 -62.046,-83.629c-0,-17.66 5.115,-33.204 15.347,-46.632c10.377,-13.573 24.994,-24.082 43.848,-31.525c18.855,-7.589 40.049,-11.384 63.581,-11.384c22.948,-0 43.484,4.086 61.608,12.26c18.27,8.173 32.448,19.849 42.533,35.028c7.814,11.648 12.601,24.61 14.361,38.886c0.865,7.022 -4.977,12.78 -12.062,12.78l-51.078,0c-7.085,0 -12.555,-5.84 -14.337,-12.688c-1.838,-7.06 -5.354,-12.901 -10.55,-17.523c-7.893,-7.152 -18.636,-10.728 -32.229,-10.728c-13.739,0 -24.628,3.065 -32.667,9.195c-7.893,5.984 -11.839,13.647 -11.839,22.987c-0,8.174 4.385,15.617 13.154,22.331c8.77,6.568 24.19,13.427 46.261,20.579c22.07,7.006 40.195,14.595 54.372,22.768c34.495,19.85 51.742,47.215 51.742,82.098c-0,27.876 -10.524,49.769 -31.571,65.677c-21.048,15.909 -49.915,23.863 -86.602,23.863c-25.87,0 -49.329,-4.597 -70.377,-13.792c-20.901,-9.341 -36.687,-22.039 -47.357,-38.093c-8.337,-12.835 -13.372,-27.181 -15.104,-43.039c-0.768,-7.033 5.063,-12.787 12.148,-12.787l51.516,-0c7.085,-0 12.656,5.778 13.773,12.765c1.72,10.755 5.79,19.125 12.21,25.109c8.916,8.027 23.313,12.041 43.191,12.041c12.717,-0 22.729,-2.7 30.037,-8.1c7.454,-5.547 11.181,-13.282 11.181,-23.207Z" style="fill:#1b2644;fill-rule:nonzero;"/><path d="M187.577,1019.9c-0,25.909 -5.936,46.783 -17.806,62.622c-11.87,15.839 -27.943,23.759 -48.217,23.759c-20.694,-0 -36.977,-6.556 -48.847,-19.668l-0,81.976l-29.151,-0l0,-235.7l26.63,-0l1.418,18.881c11.87,-14.686 28.363,-22.028 49.477,-22.028c20.485,-0 36.662,7.71 48.532,23.129c11.976,15.42 17.964,36.871 17.964,64.354l-0,2.675Zm-29.151,-3.305c-0,-19.196 -4.097,-34.353 -12.291,-45.472c-8.194,-11.119 -19.434,-16.678 -33.72,-16.678c-17.648,-0 -30.884,7.814 -39.708,23.444l-0,81.346c8.719,15.525 22.06,23.287 40.023,23.287c13.971,0 25.054,-5.507 33.248,-16.521c8.298,-11.119 12.448,-27.587 12.448,-49.406Z" style="fill:#1b2644;fill-rule:nonzero;"/><path d="M330.021,1103.13c-1.681,-3.357 -3.046,-9.336 -4.097,-17.937c-13.551,14.056 -29.728,21.084 -48.532,21.084c-16.807,-0 -30.621,-4.72 -41.441,-14.161c-10.715,-9.545 -16.072,-21.608 -16.072,-36.189c-0,-17.727 6.723,-31.469 20.169,-41.224c13.551,-9.86 32.565,-14.79 57.041,-14.79l28.363,-0l-0,-13.374c-0,-10.175 -3.047,-18.252 -9.14,-24.231c-6.092,-6.084 -15.074,-9.126 -26.944,-9.126c-10.4,-0 -19.119,2.622 -26.157,7.867c-7.038,5.245 -10.557,11.591 -10.557,19.039l-29.309,-0c0,-8.497 2.994,-16.679 8.982,-24.546c6.093,-7.972 14.286,-14.266 24.581,-18.881c10.4,-4.615 21.797,-6.923 34.193,-6.923c19.644,-0 35.033,4.93 46.169,14.79c11.135,9.755 16.912,23.234 17.332,40.437l0,78.357c0,15.63 1.996,28.06 5.988,37.29l0,2.518l-30.569,0Zm-48.374,-22.185c9.139,-0 17.805,-2.36 25.999,-7.081c8.194,-4.72 14.129,-10.856 17.806,-18.409l-0,-34.93l-22.848,-0c-35.716,-0 -53.575,10.437 -53.575,31.311c0,9.126 3.047,16.259 9.14,21.399c6.092,5.14 13.918,7.71 23.478,7.71Z" style="fill:#1b2644;fill-rule:nonzero;"/><path d="M453.557,1060.49l39.708,-127.605l31.2,-0l-68.544,196.521c-10.61,28.322 -27.47,42.483 -50.581,42.483l-5.515,-0.472l-10.872,-2.046l-0,-23.601l7.879,0.629c9.874,0 17.543,-1.993 23.005,-5.979c5.568,-3.986 10.137,-11.276 13.709,-21.87l6.46,-17.308l-60.822,-168.357l31.829,-0l42.544,127.605Z" style="fill:#1b2644;fill-rule:nonzero;"/><path d="M578.039,932.887l0.788,18.881c12.5,-14.686 29.361,-22.028 50.58,-22.028c23.846,-0 40.076,9.126 48.69,27.378c5.672,-8.182 13.026,-14.791 22.06,-19.826c9.139,-5.035 19.906,-7.552 32.302,-7.552c37.397,-0 56.411,19.773 57.041,59.318l0,114.074l-29.151,0l0,-112.343c0,-12.168 -2.784,-21.241 -8.351,-27.22c-5.568,-6.084 -14.917,-9.126 -28.048,-9.126c-10.82,-0 -19.801,3.252 -26.945,9.755c-7.143,6.399 -11.292,15.053 -12.448,25.962l0,112.972l-29.308,0l-0,-111.556c-0,-24.756 -12.133,-37.133 -36.399,-37.133c-19.119,-0 -32.197,8.129 -39.235,24.388l-0,124.301l-29.151,0l-0,-170.245l27.575,-0Z" style="fill:#1b2644;fill-rule:nonzero;"/><path d="M904.37,1106.28c-23.111,-0 -41.914,-7.553 -56.411,-22.658c-14.497,-15.209 -21.745,-35.507 -21.745,-60.891l0,-5.35c0,-16.888 3.204,-31.941 9.612,-45.158c6.513,-13.321 15.547,-23.706 27.102,-31.153c11.661,-7.553 24.266,-11.329 37.817,-11.329c22.166,-0 39.393,7.29 51.684,21.871c12.29,14.58 18.436,35.454 18.436,62.622l-0,12.116l-115.5,-0c0.42,16.783 5.305,30.367 14.654,40.751c9.454,10.28 21.43,15.42 35.926,15.42c10.295,0 19.014,-2.098 26.157,-6.294c7.144,-4.195 13.394,-9.755 18.751,-16.678l17.806,13.846c-14.287,21.923 -35.716,32.885 -64.289,32.885Zm-3.625,-152.623c-11.765,-0 -21.639,4.301 -29.623,12.902c-7.984,8.497 -12.921,20.455 -14.812,35.874l85.404,0l0,-2.202c-0.84,-14.791 -4.832,-26.224 -11.975,-34.301c-7.144,-8.182 -16.808,-12.273 -28.994,-12.273Z" style="fill:#1b2644;fill-rule:nonzero;"/><path d="M1032.32,932.887l0.945,21.398c13.026,-16.363 30.044,-24.545 51.053,-24.545c36.032,-0 54.205,20.297 54.52,60.892l0,112.5l-29.151,0l0,-112.658c-0.105,-12.272 -2.941,-21.346 -8.508,-27.22c-5.463,-5.874 -14.024,-8.811 -25.685,-8.811c-9.454,-0 -17.753,2.517 -24.896,7.552c-7.143,5.035 -12.711,11.644 -16.702,19.825l-0,121.312l-29.151,0l-0,-170.245l27.575,-0Z" style="fill:#1b2644;fill-rule:nonzero;"/><path d="M1222.35,891.663l0,41.224l31.83,-0l-0,22.5l-31.83,-0l0,105.577c0,6.818 1.418,11.958 4.254,15.42c2.837,3.356 7.669,5.035 14.497,5.035c3.362,-0 7.984,-0.63 13.866,-1.888l0,23.601c-7.668,2.098 -15.126,3.147 -22.375,3.147c-13.026,-0 -22.848,-3.934 -29.466,-11.801c-6.618,-7.867 -9.927,-19.038 -9.927,-33.514l0,-105.577l-31.041,-0l-0,-22.5l31.041,-0l0,-41.224l29.151,-0Z" style="fill:#1b2644;fill-rule:nonzero;"/><path d="M1387.64,1057.97c-0,-7.868 -2.994,-13.952 -8.982,-18.252c-5.883,-4.406 -16.23,-8.182 -31.041,-11.329c-14.707,-3.147 -26.42,-6.923 -35.139,-11.329c-8.614,-4.405 -15.022,-9.65 -19.224,-15.734c-4.097,-6.084 -6.145,-13.322 -6.145,-21.713c0,-13.951 5.883,-25.752 17.648,-35.403c11.87,-9.65 26.997,-14.475 45.381,-14.475c19.329,-0 34.981,4.982 46.956,14.947c12.08,9.966 18.121,22.71 18.121,38.235l-29.309,-0c0,-7.972 -3.414,-14.843 -10.242,-20.612c-6.723,-5.769 -15.232,-8.654 -25.526,-8.654c-10.61,-0 -18.909,2.308 -24.897,6.923c-5.987,4.616 -8.981,10.647 -8.981,18.095c-0,7.028 2.784,12.325 8.351,15.891c5.568,3.567 15.6,6.976 30.096,10.228c14.602,3.251 26.42,7.132 35.454,11.643c9.034,4.51 15.704,9.965 20.011,16.364c4.412,6.293 6.618,14.003 6.618,23.129c0,15.21 -6.092,27.43 -18.278,36.661c-12.185,9.126 -27.995,13.689 -47.429,13.689c-13.656,-0 -25.737,-2.413 -36.241,-7.238c-10.505,-4.825 -18.751,-11.538 -24.739,-20.14c-5.883,-8.706 -8.824,-18.094 -8.824,-28.164l29.151,-0c0.525,9.755 4.412,17.517 11.66,23.287c7.353,5.664 17.018,8.496 28.993,8.496c11.03,0 19.854,-2.203 26.472,-6.608c6.723,-4.511 10.085,-10.49 10.085,-17.937Z" style="fill:#1b2644;fill-rule:nonzero;"/><path d="M1259.49,725.228c109.82,0 198.848,-88.898 198.848,-198.559c-0,-109.662 -89.028,-198.56 -198.848,-198.56c-109.821,-0 -198.848,88.898 -198.848,198.56c-0,46.064 15.709,88.465 42.069,122.152l120.521,-120.346l-34.732,-34.682c-2.171,-2.168 -2.688,-4.645 -1.552,-7.432c1.139,-2.786 3.205,-4.332 6.205,-4.644l151.827,-43.226c2.067,-0 3.77,0.67 5.116,2.014c1.449,1.447 2.173,3.2 2.174,5.265l-42.511,152.383c-0.316,2.988 -1.864,5.052 -4.661,6.186c-2.893,1.032 -5.373,0.518 -7.44,-1.546l-34.732,-34.682l-119.777,119.604c32.711,23.603 72.899,37.513 116.341,37.513Z" style="fill:#2ad37c;fill-rule:nonzero;"/></svg>